<svg width="470" height="379" viewBox="0 0 470 379" fill="none" xmlns="http://www.w3.org/2000/svg">
<path d="M2.40628 378.49C1.30719 378.6 0.326996 377.798 0.216949 376.699C0.106903 375.6 0.908661 374.62 2.00772 374.51L2.40628 378.49ZM149.874 11C149.874 16.891 145.098 21.6667 139.207 21.6667C133.316 21.6667 128.54 16.891 128.54 11C128.54 5.10896 133.316 0.333333 139.207 0.333333C145.098 0.333333 149.874 5.10896 149.874 11ZM2.00772 374.51C192.931 355.393 314.404 323.017 384.867 285.353C420.091 266.526 442.411 246.459 454.357 226.219C466.262 206.047 467.938 185.586 461.656 165.664C455.351 145.67 440.987 126.103 420.611 107.97C400.247 89.8476 373.976 73.2447 344.037 59.1613C284.15 30.9904 209.8 13 139.207 13V9C210.421 9 285.35 27.1346 345.74 55.5418C375.939 69.7475 402.555 86.5469 423.27 104.982C443.972 123.405 458.876 143.549 465.471 164.461C472.088 185.445 470.294 207.085 457.801 228.252C445.349 249.35 422.343 269.857 386.753 288.881C315.588 326.92 193.484 359.357 2.40628 378.49L2.00772 374.51Z" fill="#E91E78"/>
</svg>
