<?xml version="1.0" standalone="no"?>
<!DOCTYPE svg PUBLIC "-//W3C//DTD SVG 20010904//EN"
 "http://www.w3.org/TR/2001/REC-SVG-20010904/DTD/svg10.dtd">
<svg version="1.0" xmlns="http://www.w3.org/2000/svg"
 width="1096.000000pt" height="1096.000000pt" viewBox="0 0 1096.000000 1096.000000"
 preserveAspectRatio="xMidYMid meet">
<metadata>
Created by potrace 1.14, written by Peter Selinger 2001-2017
</metadata>
<g transform="translate(0.000000,1096.000000) scale(0.100000,-0.100000)"
fill="#000000" stroke="none">
<path d="M3678 8675 c-2 -2 -31 -6 -63 -9 -33 -3 -61 -6 -62 -7 -4 -2 -9 -3
-58 -13 -122 -23 -254 -89 -331 -165 -45 -45 -100 -136 -109 -181 -2 -8 -4
-15 -5 -15 -2 0 -7 -27 -15 -82 -5 -32 -3 -43 7 -44 7 -1 140 -2 295 -3 246
-1 281 1 280 14 -2 28 33 85 66 107 55 37 163 50 255 29 37 -8 87 -43 102 -71
17 -32 18 -96 2 -127 -17 -30 -68 -63 -112 -71 -19 -4 -46 -9 -60 -12 -14 -3
-45 -7 -70 -10 -84 -11 -105 -13 -185 -25 -112 -16 -138 -20 -155 -25 -8 -2
-27 -7 -42 -10 -66 -12 -82 -16 -90 -21 -4 -3 -17 -7 -28 -9 -26 -5 -135 -60
-174 -88 -68 -49 -136 -138 -150 -201 -10 -43 -19 -24 -16 36 1 47 1 82 0 121
-1 6 -1 86 0 177 2 211 -4 275 -36 358 -65 175 -185 274 -385 318 -90 20 -376
1 -403 -26 -6 -6 -18 -10 -27 -10 -16 0 -114 -49 -148 -74 -8 -6 -40 -37 -72
-68 l-57 -57 -31 48 c-45 71 -174 162 -248 176 -10 2 -18 4 -18 5 0 13 -240
20 -315 8 -129 -20 -252 -91 -347 -201 -18 -21 -33 -34 -34 -30 -1 4 -1 52 -1
106 1 53 -2 97 -6 98 -36 4 -595 3 -597 -2 -3 -3 -6 -366 -7 -805 l-3 -799
315 0 315 0 1 471 c2 328 6 483 14 515 7 24 12 46 12 49 1 12 47 71 69 89 28
22 109 40 155 34 49 -6 118 -46 137 -80 26 -46 29 -64 32 -210 2 -73 6 -137
10 -143 3 -5 3 -10 -2 -10 -10 0 -10 -690 -1 -706 5 -7 103 -11 315 -10 l308
1 2 310 c4 717 3 697 60 774 77 101 275 91 332 -17 24 -46 26 -73 28 -547 1
-264 2 -489 3 -501 0 -20 3 -20 314 -20 l313 0 0 173 c0 95 3 176 7 180 3 3 6
-4 6 -16 0 -41 57 -145 107 -194 79 -79 203 -137 327 -153 90 -12 261 -7 344
10 110 23 242 91 291 149 20 25 28 21 29 -18 1 -19 8 -47 15 -62 l14 -27 317
0 c174 -1 316 1 316 4 0 3 -6 14 -13 25 -25 37 -46 103 -53 167 -9 85 -11 608
-2 608 4 0 5 6 3 13 -3 6 -7 100 -9 207 -2 107 -7 208 -10 223 -24 105 -85
200 -162 250 -34 22 -100 55 -124 62 -3 1 -12 4 -20 8 -13 4 -39 12 -85 23 -5
1 -30 5 -55 9 -25 4 -56 10 -70 12 -32 6 -446 13 -452 8z m377 -1007 c-2 -97
-13 -168 -26 -168 -5 0 -9 -5 -9 -12 0 -25 -53 -78 -104 -103 -81 -39 -169
-37 -245 6 -50 28 -80 81 -74 133 8 80 70 125 203 151 51 10 158 40 168 48 6
5 12 7 12 4 0 -3 15 0 33 8 17 8 34 14 38 15 3 0 4 -37 4 -82z"/>
<path d="M3250 7001 c0 -3 -28 -6 -63 -6 -141 -1 -257 -32 -370 -99 -63 -38
-151 -119 -190 -176 l-17 -24 -1 39 c0 22 -1 81 0 131 l0 90 -354 0 -353 -1
-4 -25 c-2 -14 -3 -437 -3 -940 l0 -915 368 -2 c275 -1 367 1 368 10 0 7 2
257 3 557 2 382 6 559 15 594 31 127 100 187 222 192 88 4 135 -12 185 -62 38
-38 46 -55 61 -139 2 -11 6 -272 7 -580 2 -308 4 -563 5 -566 0 -4 165 -7 366
-7 336 -1 365 1 366 16 0 9 2 262 4 562 2 300 5 552 8 560 2 8 7 29 12 45 31
116 123 178 249 170 70 -4 93 -12 134 -42 38 -29 68 -83 78 -144 4 -24 8 -294
9 -599 2 -305 3 -558 4 -561 0 -4 165 -6 366 -6 365 0 365 0 366 21 1 11 1 97
1 190 0 97 4 162 9 155 5 -8 9 -20 9 -28 0 -38 71 -151 130 -208 73 -70 220
-136 360 -161 57 -10 311 -8 370 3 67 12 155 38 192 57 21 10 44 18 53 18 8 0
15 4 15 9 0 5 8 12 18 15 17 6 50 32 104 81 14 14 28 25 31 25 2 0 5 -19 5
-43 1 -24 6 -56 11 -70 6 -15 8 -27 5 -27 -3 0 -1 -8 5 -17 9 -16 40 -18 380
-19 204 0 371 0 371 1 0 1 -11 24 -25 53 -54 112 -57 159 -60 837 -2 620 -1
611 -61 732 -29 59 -90 128 -141 158 -18 11 -33 23 -33 27 0 4 -5 8 -12 8 -6
0 -30 9 -53 20 -46 22 -203 64 -275 74 -180 23 -589 24 -670 1 -8 -2 -35 -7
-60 -10 -150 -21 -327 -97 -425 -183 -77 -67 -144 -196 -160 -307 -4 -22 -8
-52 -11 -67 l-4 -27 342 2 342 2 13 44 c11 40 69 109 94 112 20 3 25 5 39 14
18 11 211 16 225 6 5 -5 22 -11 38 -15 62 -15 110 -82 109 -153 -2 -61 -40
-123 -77 -123 -8 0 -15 -4 -15 -9 0 -5 -19 -13 -42 -17 -24 -4 -45 -8 -48 -9
-7 -2 -91 -16 -120 -20 -40 -7 -112 -16 -155 -20 -48 -5 -88 -11 -135 -20 -19
-4 -46 -8 -60 -10 -47 -6 -93 -16 -164 -36 -39 -12 -77 -21 -83 -22 -7 0 -13
-4 -13 -9 0 -4 -8 -8 -17 -8 -31 0 -157 -77 -210 -127 -54 -51 -107 -130 -118
-176 -4 -15 -10 -29 -14 -31 -3 -2 -7 154 -7 347 -1 392 -6 428 -70 563 -48
102 -139 196 -240 250 -52 28 -190 65 -254 70 -210 14 -388 -17 -527 -92 -77
-41 -94 -54 -168 -130 -63 -65 -68 -66 -95 -13 -34 65 -146 151 -251 192 -64
26 -239 61 -239 48z m3122 -1184 c-1 -118 -7 -147 -36 -206 -41 -80 -94 -122
-186 -146 -50 -13 -150 -10 -190 5 -3 1 -8 2 -12 1 -5 0 -8 3 -8 9 0 6 -7 10
-15 10 -8 0 -15 4 -15 9 0 5 -8 12 -18 15 -46 15 -72 126 -44 186 32 69 101
105 261 135 13 2 49 12 80 21 31 9 63 17 71 19 8 2 35 12 60 23 25 11 47 18
49 16 2 -2 3 -46 3 -97z"/>
<path d="M8189 5909 c-6 -4 -11 -460 -14 -1235 -2 -676 -5 -1242 -5 -1259 -1
-24 -6 -16 -27 40 -34 93 -83 168 -156 238 -59 57 -208 157 -234 157 -7 0 -13
3 -13 8 0 4 -15 12 -32 18 -188 66 -246 85 -263 89 -11 2 -22 4 -25 5 -3 2 -9
2 -13 1 -4 -1 -16 3 -25 8 -9 5 -30 11 -47 14 -16 3 -66 13 -110 22 -44 9 -93
18 -110 21 -26 3 -67 11 -210 38 -16 3 -56 11 -87 16 -32 6 -76 17 -98 25 -22
8 -40 12 -40 10 0 -6 -53 22 -93 49 -49 33 -63 81 -45 151 24 97 119 145 288
147 161 2 309 -92 346 -218 l15 -54 62 0 c65 -1 89 0 110 1 6 0 179 -1 382 -2
l370 -3 -3 54 c-8 121 -55 254 -127 355 -42 58 -146 165 -161 165 -4 0 -17 9
-29 20 -25 24 -214 120 -236 120 -8 0 -19 4 -25 9 -9 9 -190 57 -250 66 -16 3
-45 8 -64 11 -216 37 -583 37 -787 0 -18 -3 -48 -8 -65 -11 -60 -10 -187 -45
-250 -69 -73 -28 -201 -86 -208 -95 -3 -3 -25 -19 -49 -35 -112 -72 -213 -196
-262 -321 -15 -37 -12 -27 -35 -125 -3 -14 -7 -71 -9 -128 -7 -293 133 -505
428 -646 108 -51 272 -106 396 -132 14 -3 28 -7 31 -9 4 -2 20 -7 36 -9 16 -3
40 -8 54 -11 14 -3 52 -10 85 -16 33 -6 71 -13 85 -16 14 -3 34 -6 45 -8 66
-10 105 -18 140 -27 22 -6 49 -11 60 -13 35 -5 158 -46 197 -66 39 -20 79 -66
85 -97 16 -85 -2 -141 -58 -183 -31 -23 -88 -51 -114 -55 -5 -1 -29 -7 -53
-12 -63 -15 -220 -8 -283 13 -78 25 -179 106 -179 143 0 6 -4 12 -8 12 -8 0
-29 57 -38 103 -2 11 -5 21 -7 23 -2 2 -217 5 -478 6 l-474 3 -1 495 c0 272
-4 531 -8 575 -8 83 -36 210 -58 261 -66 149 -194 269 -368 343 -30 13 -59 24
-65 26 -5 1 -17 5 -25 8 -48 18 -116 34 -185 44 -22 3 -42 8 -45 12 -3 3 -18
7 -35 7 -16 1 -55 4 -85 8 -251 29 -648 25 -875 -9 -145 -21 -252 -49 -400
-105 -11 -4 -24 -9 -30 -10 -5 -1 -22 -11 -37 -21 -14 -10 -28 -19 -31 -19 -3
0 -32 -18 -65 -39 -65 -44 -178 -153 -187 -182 -4 -11 -10 -19 -14 -19 -8 0
-60 -102 -79 -155 -22 -61 -42 -153 -44 -210 l-3 -59 473 -1 c423 -1 472 0
473 14 5 102 86 192 204 226 72 21 220 27 289 10 145 -34 224 -119 220 -240
-3 -120 -97 -193 -279 -220 -85 -13 -101 -15 -125 -20 -14 -2 -45 -6 -70 -9
-25 -3 -65 -8 -90 -11 -94 -11 -347 -49 -400 -60 -14 -3 -34 -7 -45 -9 -54
-11 -158 -40 -225 -62 -71 -24 -199 -82 -210 -95 -3 -3 -16 -12 -29 -19 -31
-16 -40 -23 -108 -85 -48 -43 -100 -111 -139 -180 -11 -19 -23 -20 -474 -20
-420 0 -463 -2 -465 -16 -31 -208 -201 -362 -399 -360 -234 2 -366 117 -423
366 -15 70 -23 310 -14 445 6 78 39 207 70 269 52 102 147 176 260 200 70 15
208 6 273 -19 62 -23 158 -104 158 -133 0 -9 4 -17 9 -17 4 0 14 -21 21 -47 7
-27 16 -61 21 -78 l9 -30 480 -1 480 -1 0 21 c0 31 -19 142 -34 204 -40 159
-155 351 -283 473 -137 130 -358 252 -538 296 -11 3 -36 8 -55 13 -19 5 -46
11 -60 15 -14 3 -38 8 -55 10 -16 2 -43 6 -60 9 -88 15 -324 22 -420 11 -118
-13 -147 -17 -225 -35 -76 -18 -99 -24 -135 -34 -5 -2 -23 -8 -40 -15 -16 -7
-47 -18 -67 -24 -21 -7 -38 -15 -38 -18 0 -4 -11 -10 -24 -13 -29 -7 -188 -97
-229 -129 -62 -47 -173 -146 -197 -173 -100 -116 -156 -197 -208 -301 -50
-100 -105 -264 -116 -343 -2 -19 -8 -53 -13 -75 -13 -66 -9 -373 6 -445 19
-92 18 -89 36 -157 14 -56 73 -202 106 -263 22 -40 105 -162 134 -195 124
-144 269 -260 425 -341 30 -15 57 -29 60 -29 7 -2 61 -24 85 -34 94 -41 284
-85 420 -98 126 -12 331 -6 435 11 14 3 42 7 63 10 52 8 205 52 269 77 169 67
308 154 424 267 102 98 139 145 207 259 l54 92 7 -65 c8 -79 45 -195 83 -263
99 -175 264 -293 498 -357 112 -31 181 -38 365 -38 142 0 221 5 290 18 210 39
381 118 504 234 25 23 49 44 53 45 4 1 8 -25 9 -58 2 -33 9 -87 17 -120 l14
-60 344 -3 c189 -1 422 -3 517 -5 188 -2 186 -3 153 55 -22 37 -57 138 -65
183 -2 17 -5 30 -6 30 -5 0 -10 82 -14 255 -3 107 -2 186 0 175 75 -295 287
-508 632 -634 77 -28 215 -65 287 -77 21 -3 46 -7 56 -9 16 -3 52 -7 184 -20
52 -6 305 -5 370 0 60 5 147 14 195 21 266 38 513 132 657 250 136 111 216
228 263 385 l19 64 -2 -343 c-1 -222 2 -342 8 -343 6 -1 236 -2 513 -3 l502
-2 1 350 c1 641 7 1120 14 1166 19 120 77 229 149 282 73 54 123 70 226 74
198 7 298 -63 335 -235 3 -11 8 -31 11 -43 4 -13 7 -375 8 -805 0 -430 4 -784
8 -788 6 -6 159 -10 183 -5 6 1 15 1 20 0 6 -1 28 -1 50 -1 22 1 45 1 50 1 6
0 167 -1 360 -2 l350 -2 1 959 c2 915 1 964 -17 1045 -10 47 -21 92 -24 100
-9 29 -30 85 -37 95 -3 6 -18 33 -33 60 -98 179 -305 332 -517 381 -133 32
-356 47 -453 31 -16 -3 -50 -9 -75 -12 -25 -4 -53 -9 -62 -11 -10 -2 -28 -6
-40 -9 -66 -14 -240 -85 -258 -105 -3 -3 -24 -18 -48 -33 -23 -15 -76 -60
-117 -99 -41 -39 -75 -69 -76 -67 0 2 0 105 0 229 1 124 1 241 0 260 -4 143
-3 170 1 170 7 0 3 107 -4 126 -3 8 -2 13 2 10 9 -5 7 208 -2 223 -4 6 -4 11
1 11 4 0 8 16 8 35 0 19 -4 35 -8 35 -5 0 -5 5 -1 11 8 13 10 136 2 144 -7 7
-998 11 -1009 4z m-3665 -2517 c1 -62 -3 -112 -8 -112 -5 0 -3 -6 3 -13 6 -8
9 -16 7 -18 -3 -3 -7 -16 -9 -29 -19 -100 -54 -176 -111 -235 -34 -36 -125
-89 -171 -100 -16 -4 -39 -9 -50 -12 -48 -11 -160 -3 -219 17 -63 21 -156 90
-156 116 0 8 -4 14 -9 14 -13 0 -29 74 -25 119 9 102 85 178 218 216 32 10 64
18 70 19 6 1 20 5 31 9 11 3 31 8 45 11 108 19 334 87 355 107 22 21 29 -3 29
-109z"/>
</g>
</svg>
