<svg width="43" height="43" viewBox="0 0 43 43" fill="none" xmlns="http://www.w3.org/2000/svg">
<path fill-rule="evenodd" clip-rule="evenodd" d="M0 21.5C0 9.62588 9.62588 0 21.5 0C33.3741 0 43 9.62588 43 21.5C43 33.3741 33.3741 43 21.5 43C9.62588 43 0 33.3741 0 21.5ZM21.5 10.75C27.4125 10.75 32.25 15.5875 32.25 21.5C32.25 26.875 28.3531 31.4438 22.9781 32.25V24.5906H25.5312L26.0688 21.5H23.1125V19.4844C23.1125 18.6781 23.5156 17.8719 24.8594 17.8719H26.2031V15.1844C26.2031 15.1844 24.9937 14.9156 23.7844 14.9156C21.3656 14.9156 19.7531 16.3937 19.7531 19.0812V21.5H17.0656V24.5906H19.7531V32.1156C14.6469 31.3094 10.75 26.875 10.75 21.5C10.75 15.5875 15.5875 10.75 21.5 10.75Z" fill="#141392"/>
</svg>
