<svg width="43" height="43" viewBox="0 0 43 43" fill="none" xmlns="http://www.w3.org/2000/svg">
<path d="M21.5 25.2625C19.4844 25.2625 17.7375 23.65 17.7375 21.5C17.7375 19.4844 19.35 17.7375 21.5 17.7375C23.5156 17.7375 25.2625 19.35 25.2625 21.5C25.2625 23.5156 23.5156 25.2625 21.5 25.2625Z" fill="#1FAAAC"/>
<path fill-rule="evenodd" clip-rule="evenodd" d="M26.0688 12.3625H16.9312C15.8562 12.4969 15.3188 12.6312 14.9156 12.7656C14.3781 12.9 13.975 13.1687 13.5719 13.5719C13.2529 13.8909 13.1022 14.2098 12.92 14.5954C12.872 14.697 12.8217 14.8035 12.7656 14.9156C12.7448 14.978 12.7208 15.0436 12.6951 15.1139C12.5545 15.4979 12.3625 16.0225 12.3625 16.9312V26.0687C12.4969 27.1437 12.6312 27.6812 12.7656 28.0844C12.9 28.6219 13.1687 29.025 13.5719 29.4281C13.8909 29.7471 14.2099 29.8978 14.5954 30.08C14.6971 30.128 14.8034 30.1783 14.9156 30.2344C14.978 30.2552 15.0436 30.2792 15.1139 30.3049C15.4979 30.4455 16.0226 30.6375 16.9312 30.6375H26.0688C27.1437 30.5031 27.6812 30.3687 28.0844 30.2344C28.6219 30.1 29.025 29.8312 29.4281 29.4281C29.7471 29.1091 29.8978 28.7901 30.08 28.4046C30.128 28.3029 30.1783 28.1965 30.2344 28.0844C30.2552 28.022 30.2792 27.9564 30.3049 27.8861C30.4455 27.5021 30.6375 26.9774 30.6375 26.0687V16.9312C30.5031 15.8562 30.3687 15.3187 30.2344 14.9156C30.1 14.3781 29.8312 13.975 29.4281 13.5719C29.1091 13.2529 28.7901 13.1022 28.4046 12.92C28.303 12.872 28.1964 12.8216 28.0844 12.7656C28.022 12.7448 27.9564 12.7208 27.8861 12.6951C27.5021 12.5545 26.9774 12.3625 26.0688 12.3625ZM21.5 15.7219C18.275 15.7219 15.7219 18.275 15.7219 21.5C15.7219 24.725 18.275 27.2781 21.5 27.2781C24.725 27.2781 27.2781 24.725 27.2781 21.5C27.2781 18.275 24.725 15.7219 21.5 15.7219ZM28.7563 15.5875C28.7563 16.3296 28.1546 16.9312 27.4125 16.9312C26.6704 16.9312 26.0688 16.3296 26.0688 15.5875C26.0688 14.8454 26.6704 14.2437 27.4125 14.2437C28.1546 14.2437 28.7563 14.8454 28.7563 15.5875Z" fill="#1FAAAC"/>
<path fill-rule="evenodd" clip-rule="evenodd" d="M0 21.5C0 9.62588 9.62588 0 21.5 0C33.3741 0 43 9.62588 43 21.5C43 33.3741 33.3741 43 21.5 43C9.62588 43 0 33.3741 0 21.5ZM16.9312 10.3469H26.0688C27.2781 10.4812 28.0844 10.6156 28.7563 10.8844C29.5625 11.2875 30.1 11.5562 30.7719 12.2281C31.4438 12.9 31.8469 13.5719 32.1156 14.2437C32.3844 14.9156 32.6531 15.7219 32.6531 16.9312V26.0687C32.5187 27.2781 32.3844 28.0844 32.1156 28.7562C31.7125 29.5625 31.4438 30.1 30.7719 30.7719C30.1 31.4437 29.4281 31.8469 28.7563 32.1156C28.0844 32.3844 27.2781 32.6531 26.0688 32.6531H16.9312C15.7219 32.5187 14.9156 32.3844 14.2438 32.1156C13.4375 31.7125 12.9 31.4437 12.2281 30.7719C11.5563 30.1 11.1531 29.4281 10.8844 28.7562C10.6156 28.0844 10.3469 27.2781 10.3469 26.0687V16.9312C10.4812 15.7219 10.6156 14.9156 10.8844 14.2437C11.2875 13.4375 11.5563 12.9 12.2281 12.2281C12.9 11.5562 13.5719 11.1531 14.2438 10.8844C14.9156 10.6156 15.7219 10.3469 16.9312 10.3469Z" fill="#1FAAAC"/>
</svg>
