<svg width="137" height="80" viewBox="0 0 137 80" fill="none" xmlns="http://www.w3.org/2000/svg">
<g clip-path="url(#clip0_561_10364)">
<path d="M47.1373 24.6597C46.0202 22.3052 43.2257 20.9881 40.6157 20.9848C37.261 20.9848 34.5571 21.9751 32.6919 24.6934H32.5979V21.5372L23.7012 21.5608L23.6811 45.0993L32.9066 45.106L32.9166 32.3464C32.9166 29.901 33.7117 28.1359 36.0432 28.1393C38.8377 28.1393 39.0692 30.1334 39.0692 32.3532L39.0591 45.0993L48.2846 45.106L48.2947 32.3599C48.2947 29.9144 49.0897 28.1494 51.4212 28.1528C54.2157 28.1528 54.4472 30.1469 54.4472 32.3667L54.4371 45.0925L63.6626 45.0993V40.114C64.4208 43.8968 67.8929 45.6012 71.989 45.6147C74.9647 45.6248 77.7994 45.0016 79.7586 42.8323H79.8525C79.8055 43.4656 79.9397 44.4189 80.1712 45.0521L89.5577 45.0858C88.5378 43.5902 88.454 41.5961 88.4607 39.8277L88.4942 30.1805C88.511 25.65 88.6184 20.9848 77.0949 20.9443C71.3785 20.9241 64.9642 21.9885 64.6623 28.6008L73.2101 28.6311C73.2605 27.6374 73.8241 26.2328 76.6588 26.2429C78.1449 26.2462 79.678 26.8424 79.6713 28.4256C79.668 29.9212 78.41 30.2782 77.1553 30.5005C72.8143 31.282 64.8703 31.0867 63.6727 36.9174L63.6794 28.9713C63.6828 25.1683 61.5894 20.9982 55.3932 20.9949C49.3816 20.9881 47.5164 24.3869 47.1406 24.6563L47.1373 24.6597ZM76.0181 35.6205C77.2727 35.3544 78.5307 35.0412 79.6479 34.5022L79.6411 36.6782C79.4935 39.1237 77.8631 40.3397 75.7731 40.333C74.1025 40.3262 72.8982 39.2349 72.9015 38.1502C72.9082 36.5637 73.9784 36.0719 76.0248 35.6239L76.0181 35.6205ZM10.7352 9.91613C10.7419 7.82771 11.4229 6.32202 13.4156 6.32876C15.8042 6.33886 15.9988 8.03992 15.9921 9.93297L15.9585 20.8332H23.8354L23.8723 9.95992C23.879 7.87149 24.56 6.36581 26.5527 6.37255C28.9413 6.37928 29.1359 8.08371 29.1291 9.97676L29.0956 20.8298H36.9691L36.9893 16.0332C37.4958 19.4925 40.5352 21.0488 44.1482 21.0622C46.6877 21.0723 49.1099 20.5368 50.7839 18.6875H50.861C50.8208 19.2298 50.9315 19.7452 51.1294 20.2875H59.1505C58.2817 19.0109 58.2078 17.6298 58.2146 16.1241L58.2414 7.88497C58.2548 4.01802 58.3487 0.0331787 48.506 -0.000505542C43.6249 -0.0173476 38.1466 0.892126 37.8883 6.5376L45.1882 6.56455C45.2284 5.7157 45.7115 4.51655 48.1303 4.52328C49.4017 4.52665 50.7067 5.03528 50.7033 6.38939C50.7 7.66602 49.6265 7.96918 48.553 8.16118C44.7957 8.83486 37.8648 8.65297 36.9926 13.8471L37.0194 7.10686C37.0295 3.85634 35.2515 0.292547 29.9578 0.275705C24.8217 0.258863 23.2181 3.15234 22.8994 3.38476C21.9534 1.37044 19.5682 0.238652 17.3373 0.231916C14.469 0.22181 12.161 1.06392 10.5574 3.38139H10.4769L10.487 0.7136L2.88183 0.686652L2.81138 20.8365L10.695 20.8231L10.7319 9.91949L10.7352 9.91613ZM47.5868 12.53C48.657 12.301 49.7305 12.0349 50.6866 11.5734L50.6799 13.4294C50.5524 15.5178 49.1602 16.5587 47.3755 16.5519C45.9464 16.5452 44.9165 15.6155 44.9232 14.6858C44.9265 13.3317 45.8424 12.9107 47.5902 12.53H47.5868ZM125.561 46.0829C120.143 46.0627 117.294 47.8749 115.097 50.381H114.966L115.02 34.6134L102.249 34.5696L102.138 66.5393C101.356 62.514 98.0518 60.4963 94.3516 59.3376C90.0978 57.9397 85.2637 57.6736 83.1368 56.7877C82.4289 56.4711 81.6573 56.0298 81.6607 55.0867C81.6674 52.9511 83.7339 52.5839 85.5387 52.5873C86.572 52.5907 87.6019 52.9073 88.3735 53.5405C89.2088 54.1064 89.7858 54.925 89.8462 55.9928L101.454 56.0332C101.158 47.6829 92.4595 45.7056 85.2368 45.682C78.5307 45.6584 69.4294 47.7603 69.4025 55.986C69.3824 61.5742 73.3074 64.5991 83.0395 66.2664C88.9706 67.2938 90.0643 67.8597 90.0575 69.7427C90.0508 71.6256 87.404 72.2454 85.73 72.2387C84.1801 72.2319 82.959 71.8513 82.3148 71.2854C81.3487 70.4669 80.8354 69.5203 80.7784 68.3919L68.7685 68.3515L68.802 58.6134C68.8222 52.3347 68.9731 45.8707 53.0013 45.8134C45.0775 45.7864 36.1841 47.2618 35.7648 56.4273L47.617 56.4677C47.6875 55.0867 48.4657 53.1431 52.3941 53.1565C54.4539 53.1633 56.5775 53.9885 56.5707 56.1848C56.564 58.2563 54.8229 58.7515 53.0818 59.0614C47.5398 60.0584 37.7575 59.9069 34.9496 66.1923L23.3355 66.1519C23.0705 68.7254 21.1281 70.9149 18.3538 70.9048C13.4525 70.8879 12.7581 66.8054 12.7715 62.8475C12.785 58.893 13.5096 54.7498 18.4108 54.77C19.7661 54.7734 20.8598 55.154 21.6314 55.8479C22.4667 56.5418 22.9162 57.6096 23.0403 58.93L35.1643 58.9704C34.4229 49.9902 26.9553 45.7595 18.1861 45.7258C8.11854 45.6888 0.0370285 52.4997 0.000126554 62.797C-0.0367753 73.0942 8.00113 79.9018 18.0619 79.9355C25.3719 79.9624 31.464 76.7321 34.1881 70.8071C34.5235 77.1498 39.7066 79.9759 45.9229 79.9961C50.0458 80.0096 53.9775 79.1473 56.6949 76.1427H56.8223C56.7553 77.0218 56.9431 78.3422 57.2618 79.2214L70.2748 79.2685C68.8658 77.1902 68.745 74.4281 68.7551 71.9827L68.7618 70.093C70.0097 77.1902 77.9571 79.8648 85.2536 79.8917C92.7078 79.9187 100.813 77.8841 102.128 70.5713L102.098 79.4235L114.869 79.4673L114.929 62.2547C114.946 57.0403 117.855 55.9827 120.049 55.9894C123.789 56.0029 124.232 58.6437 124.219 62.413L124.158 79.501L136.93 79.5448L137.007 57.1818C137.034 49.7039 131.562 46.1064 125.567 46.0862L125.561 46.0829ZM56.5271 67.6037C56.3225 70.9923 54.0614 72.6799 51.1629 72.6698C48.8448 72.6631 47.1742 71.1473 47.1809 69.6416C47.1876 67.4454 48.6737 66.7616 51.5085 66.1418C53.2496 65.7713 54.9907 65.3368 56.5372 64.589L56.5271 67.6037Z" fill="#141392"/>
</g>
<defs>
<clipPath id="clip0_561_10364">
<rect width="137" height="80" fill="white"/>
</clipPath>
</defs>
</svg>
