<svg width="867" height="1800" viewBox="0 0 867 1800" fill="none" xmlns="http://www.w3.org/2000/svg">
<path d="M33.5395 11C33.5395 16.891 38.3151 21.6667 44.2062 21.6667C50.0972 21.6667 54.8728 16.891 54.8728 11C54.8728 5.10896 50.0972 0.333333 44.2062 0.333333C38.3151 0.333333 33.5395 5.10896 33.5395 11ZM130.703 670.5L129.601 668.831L130.703 670.5ZM868.681 1799.32C869.689 1799.78 870.873 1799.33 871.325 1798.32C871.777 1797.31 871.327 1796.13 870.319 1795.68L868.681 1799.32ZM43.6222 12.9129C157.774 47.7581 248.614 87.4953 313.563 132.142C378.522 176.796 417.377 226.211 428.01 280.37C438.637 334.494 421.176 393.861 372.393 458.654C323.6 523.461 243.606 593.506 129.601 668.831L131.806 672.169C245.992 596.724 326.407 526.383 375.588 461.06C424.779 395.725 442.856 335.22 431.936 279.599C421.022 224.013 381.242 173.811 315.829 128.846C250.407 83.8745 159.137 43.9919 44.7901 9.08714L43.6222 12.9129ZM129.601 668.831C73.3256 706.013 37.2717 749.293 18.0605 796.92C-1.14871 844.541 -3.45208 896.343 7.49294 950.463C29.3663 1058.62 104.202 1176.3 203.431 1289.25C401.92 1515.18 698.849 1723.1 868.681 1799.32L870.319 1795.68C701.035 1719.7 404.566 1512.13 206.436 1286.61C107.356 1173.83 33.0778 1056.79 11.4136 949.67C0.58977 896.149 2.91181 845.167 21.77 798.416C40.6262 751.67 76.0818 708.987 131.806 672.169L129.601 668.831Z" fill="#E91E78"/>
</svg>
